<?xml version="1.0" encoding="UTF-8"?>
<svg width="170px" height="170px" viewBox="0 0 170 170" version="1.1" xmlns="http://www.w3.org/2000/svg" xmlns:xlink="http://www.w3.org/1999/xlink">
    <!-- Generator: Sketch 52.2 (67145) - http://www.bohemiancoding.com/sketch -->
    <title>cloud-computing-66</title>
    <desc>Created with Sketch.</desc>
    <g id="Page-1" stroke="none" stroke-width="1" fill="none" fill-rule="evenodd">
        <g id="140-Cloud-Computing-Icons" transform="translate(-1870.000000, -2540.000000)" fill="#FFFFFF">
            <path d="M2019.73878,2593.87135 C2018.28163,2575.7986 2002.73878,2561.33347 1983.93469,2561.33347 C1978.86939,2561.33347 1973.80408,2562.40881 1969.46735,2564.21262 C1960.06531,2549.4006 1943.41224,2540 1925.33673,2540 C1896.74898,2540 1873.60816,2563.13727 1873.60816,2590.9922 C1873.60816,2595.70984 1874.33673,2600.73968 1875.79388,2605.45733 C1872.18571,2610.86874 1870,2617.3902 1870,2623.91165 C1870,2641.98439 1884.81429,2656.44952 1902.92449,2656.44952 L1941.08776,2656.44952 L1941.08776,2685.83074 L1932.76122,2677.71362 C1931.30408,2676.2567 1926.82857,2673.86318 1923.01224,2677.71362 C1920.13265,2680.59277 1920.13265,2684.96353 1923.01224,2687.84268 L1943.62041,2708.1008 C1946.15306,2710.63307 1950.4898,2710.63307 1953.36939,2708.1008 L1973.97755,2687.84268 C1976.5102,2684.96353 1976.85714,2680.59277 1973.97755,2677.71362 C1971.09796,2675.18135 1966.72653,2674.83446 1963.84694,2677.71362 L1955.52041,2685.83074 L1955.52041,2656.44952 L2007.07551,2656.44952 C2025.15102,2656.44952 2040,2641.6375 2040,2623.91165 C2040,2610.52186 2031.67347,2598.93588 2019.73878,2593.87135 L2019.73878,2593.87135 L2019.73878,2593.87135 Z M2007.07551,2642.71285 L1955.5551,2642.71285 L1955.5551,2602.12723 C1955.5551,2598.13804 1952.29388,2594.87731 1948.30408,2594.87731 C1944.31429,2594.87731 1941.05306,2598.13804 1941.05306,2602.12723 L1941.05306,2642.71285 L1902.8898,2642.71285 C1892.41224,2642.71285 1884.08571,2634.38759 1884.08571,2624.25853 C1884.08571,2619.54089 1885.8898,2615.20482 1889.15102,2611.97878 C1890.9551,2609.7934 1891.68367,2606.91425 1890.60816,2604.38198 C1888.80408,2600.04591 1888.07551,2595.32827 1888.07551,2590.9922 C1888.07551,2570.73407 1904.72857,2554.11825 1925.33673,2554.11825 C1940.53265,2554.11825 1954.27143,2563.17196 1960.06531,2577.25552 C1960.79388,2579.05933 1965.7551,2584.05448 1970.92449,2580.13467 C1974.53265,2577.25552 1979.25102,2575.7986 1983.93469,2575.7986 C1995.86939,2575.7986 2005.65306,2585.54609 2005.65306,2597.13207 C2005.65306,2597.86053 2004.09184,2605.07575 2011.06531,2606.53267 C2019.73878,2608.33648 2025.87959,2615.58639 2025.87959,2624.25853 C2025.87959,2634.38759 2017.58776,2642.71285 2007.07551,2642.71285 L2007.07551,2642.71285 L2007.07551,2642.71285 Z" id="cloud-computing-66"></path>
        </g>
    </g>
</svg>