<?xml version="1.0" encoding="UTF-8"?>
<svg width="12px" height="6px" viewBox="0 0 12 6" version="1.1" xmlns="http://www.w3.org/2000/svg" xmlns:xlink="http://www.w3.org/1999/xlink">
    <!-- Generator: Sketch 50.2 (55047) - http://www.bohemiancoding.com/sketch -->
    <title>Shape Copy</title>
    <desc>Created with Sketch.</desc>
    <defs></defs>
    <g id="PC网页" stroke="none" stroke-width="1" fill="none" fill-rule="evenodd">
        <g id="Desktop-HD" transform="translate(-1294.000000, -107.000000)" fill="#C0CCDA" fill-rule="nonzero">
            <g id="Group-27" transform="translate(0.000000, 80.000000)">
                <g id="Group-4" transform="translate(1280.000000, 14.000000)">
                    <path d="M22.792928,16.5128159 C22.7883424,16.5176026 22.7820243,16.5188026 22.7774641,16.5233226 L18.2030871,21.7854645 C17.9267747,22.0686909 17.481391,22.0719843 17.2088363,21.7923712 C16.9362688,21.5127448 16.9391348,21.0564652 17.2157148,20.7729188 L21.356134,16.0099764 L17.2073969,11.237714 C16.9311099,10.9542076 16.9308169,10.4951947 17.2068236,10.2119949 C17.4831233,9.92908853 17.9308127,9.92938186 18.2073926,10.2125949 L22.7926351,15.4873635 C23.0689348,15.7705766 23.069215,16.2298829 22.7929153,16.5128026 L22.792928,16.5128159 Z" id="Shape-Copy" transform="translate(20.000000, 16.000000) scale(1, -1) rotate(90.000000) translate(-20.000000, -16.000000) "></path>
                </g>
            </g>
        </g>
    </g>
</svg>