<?xml version="1.0" encoding="UTF-8"?>
<svg width="16px" height="16px" viewBox="0 0 16 16" version="1.1" xmlns="http://www.w3.org/2000/svg" xmlns:xlink="http://www.w3.org/1999/xlink">
    <!-- Generator: Sketch 51.2 (57519) - http://www.bohemiancoding.com/sketch -->
    <title>mac_icon</title>
    <desc>Created with Sketch.</desc>
    <defs></defs>
    <g id="Page-1" stroke="none" stroke-width="1" fill="none" fill-rule="evenodd">
        <g id="有爱首页" transform="translate(-458.000000, -1138.000000)" fill="#1F2D3D" fill-rule="nonzero">
            <g id="Group-19" transform="translate(458.000000, 1138.000000)">
                <path d="M10.882887,2.55060845 C11.770429,1.52211883 11.689848,0 11.689848,0 C11.689848,0 10.1749254,0.139727989 9.28795893,1.16936292 C8.40041688,2.19613457 8.48099787,3.72111668 8.48099787,3.72111668 C8.48099787,3.72111668 9.99534491,3.58024338 10.882887,2.55060845 Z M12.8070459,8.48561203 C12.8070459,7.18740157 13.526519,6.05640659 14.5873102,5.46886185 C13.8459651,4.40372226 12.5417042,3.8138869 11.6357436,3.8138869 C10.5461735,3.8138869 9.0450648,4.57952756 8.60935187,4.57952756 C8.14658676,4.57952756 7.17673698,3.88718683 5.88456324,3.86828919 C4.81744069,3.85282749 3.02451365,4.47015032 2.39713309,6.30150322 C1.77032809,8.13113815 1.7996826,10.7768074 3.11142601,13.2346457 C4.16358351,15.2028633 5.09371837,16 5.99334758,16 C6.89412793,16 7.95549469,15.3162491 8.80101952,15.3162491 C9.64539318,15.3162491 10.436238,16 11.3088151,16 C12.1796653,16 13.0792945,15.288189 13.7331517,14.3055118 C14.3870089,13.320544 14.9879129,11.7909807 14.9879129,11.7909807 C14.9879129,11.7909807 14.9913663,11.7508948 15,11.6924839 C13.7170355,11.1942734 12.8070459,9.94702935 12.8070459,8.48561203 Z" id="Shape"></path>
            </g>
        </g>
    </g>
</svg>