<?xml version="1.0" encoding="UTF-8"?>
<svg width="20px" height="20px" viewBox="0 0 20 20" version="1.1" xmlns="http://www.w3.org/2000/svg" xmlns:xlink="http://www.w3.org/1999/xlink">
    <!-- Generator: Sketch 50 (54983) - http://www.bohemiancoding.com/sketch -->
    <title>Group 4</title>
    <desc>Created with Sketch.</desc>
    <defs></defs>
    <g id="Page-1" stroke="none" stroke-width="1" fill="none" fill-rule="evenodd">
        <g id="index" transform="translate(-1018.000000, -693.000000)" fill="#FFFFFF" fill-rule="nonzero">
            <g id="text" transform="translate(807.000000, 306.000000)">
                <g id="Group-6-Copy" transform="translate(180.000000, 377.000000)">
                    <g id="Group-4" transform="translate(31.000000, 8.000000)">
                        <g id="Group-9" transform="translate(0.000000, 2.000000)">
                            <path d="M18.2857143,9.36263736 C17.5516484,9.36263736 16.956044,9.95824176 16.956044,10.6923077 L16.956044,10.6945055 C16.9538462,14.3582418 13.9736264,17.3406593 10.3076923,17.3406593 C6.64175824,17.3406593 3.65934066,14.3582418 3.65934066,10.6923077 C3.65934066,7.02637363 6.64175824,4.04395604 10.3076923,4.04395604 C11.1164835,4.04395604 11.8835165,4.21098901 12.6021978,4.47692308 C11.8989011,4.54285714 11.3406593,5.11648352 11.3406593,5.83736264 C11.3406593,6.6021978 11.9604396,7.22197802 12.7252747,7.22197802 L17.1626374,7.22197802 C17.9274725,7.22197802 18.5472527,6.6021978 18.5472527,5.83736264 L18.5472527,1.38461538 C18.5472527,0.61978022 17.9274725,0 17.1626374,0 C16.3978022,0 15.778022,0.61978022 15.778022,1.38461538 L15.778022,3.17362637 C14.2417582,2.05494505 12.356044,1.38461538 10.3076923,1.38461538 C5.16703297,1.38461538 1,5.55164835 1,10.6923077 C1,15.832967 5.16703297,20 10.3076923,20 C15.4483516,20 19.6153846,15.832967 19.6153846,10.6923077 C19.6153846,9.95824176 19.0197802,9.36263736 18.2857143,9.36263736 Z" id="Shape"></path>
                        </g>
                    </g>
                </g>
            </g>
        </g>
    </g>
</svg>