<?xml version="1.0" encoding="UTF-8"?>
<svg width="20px" height="20px" viewBox="0 0 20 20" version="1.1" xmlns="http://www.w3.org/2000/svg" xmlns:xlink="http://www.w3.org/1999/xlink">
    <!-- Generator: Sketch 50 (54983) - http://www.bohemiancoding.com/sketch -->
    <title>Group 4</title>
    <desc>Created with Sketch.</desc>
    <defs></defs>
    <g id="Page-1" stroke="none" stroke-width="1" fill="none" fill-rule="evenodd">
        <g id="index" transform="translate(-836.000000, -692.000000)" fill="#FFFFFF" fill-rule="nonzero">
            <g id="text" transform="translate(807.000000, 306.000000)">
                <g id="Group-6" transform="translate(0.000000, 377.000000)">
                    <g id="Group-4" transform="translate(29.000000, 8.000000)">
                        <g id="Group-8" transform="translate(0.000000, 1.000000)">
                            <path d="M10.0401704,20 C10.6700457,20 11.1853982,19.4890703 11.1853982,18.8646006 L11.1853982,3.99086867 L15.5870625,7.79445661 C15.7970434,7.98366758 16.0833503,8.07830646 16.3505252,8.07830646 C16.6750289,8.07830646 16.9804005,7.94586546 17.2094461,7.69981773 C17.6293405,7.22675692 17.5912111,6.50764838 17.113988,6.09135754 L10.5289282,0.281919613 C10.1090338,-0.0776012629 9.49822324,-0.0965691115 9.0591968,0.244050704 C8.84921592,0.338689582 8.67743176,0.50899949 8.56290898,0.698210458 L2.85583477,6.12922644 C2.39774366,6.56448514 2.37867898,7.28352689 2.81763806,7.73768664 C3.25666449,8.1918464 3.98193051,8.21074746 4.44002162,7.77555555 L8.8947405,3.99086867 L8.8947405,18.8646006 C8.8949426,19.4890703 9.4102951,20 10.0401704,20 Z" id="Shape" transform="translate(10.000000, 10.000000) rotate(-90.000000) translate(-10.000000, -10.000000) "></path>
                        </g>
                    </g>
                </g>
            </g>
        </g>
    </g>
</svg>